<svg xmlns="http://www.w3.org/2000/svg" width="64.512" height="62.901" viewBox="0 0 64.512 62.901">
  <path id="Icon_awesome-github" data-name="Icon awesome-github" d="M21.578,51.21c0,.26-.3.468-.676.468-.429.039-.728-.169-.728-.468,0-.26.3-.468.676-.468C21.24,50.7,21.578,50.911,21.578,51.21Zm-4.045-.585c-.091.26.169.559.559.637A.61.61,0,0,0,18.9,51c.078-.26-.169-.559-.559-.676A.668.668,0,0,0,17.533,50.625Zm5.749-.221c-.377.091-.637.338-.6.637.039.26.377.429.767.338s.637-.338.6-.6S23.659,50.365,23.282,50.4ZM31.84.563C13.8.563,0,14.258,0,32.3A32.609,32.609,0,0,0,22.046,63.41c1.665.3,2.25-.728,2.25-1.574,0-.806-.039-5.255-.039-7.986,0,0-9.1,1.951-11.017-3.876,0,0-1.483-3.785-3.616-4.76,0,0-2.978-2.042.208-2a6.866,6.866,0,0,1,5.021,3.356c2.848,5.021,7.622,3.577,9.482,2.718A7.229,7.229,0,0,1,26.416,44.9C19.146,44.1,11.81,43.042,11.81,30.53a9.857,9.857,0,0,1,3.07-7.661,12.289,12.289,0,0,1,.338-8.831c2.718-.845,8.975,3.512,8.975,3.512a30.727,30.727,0,0,1,16.336,0s6.256-4.37,8.975-3.512a12.283,12.283,0,0,1,.338,8.831c2.081,2.3,3.356,4.1,3.356,7.661,0,12.551-7.661,13.553-14.932,14.372,1.2,1.028,2.211,2.979,2.211,6.035,0,4.383-.039,9.807-.039,10.873,0,.845.6,1.873,2.25,1.574C55.694,59.066,64.512,46.723,64.512,32.3,64.512,14.258,49.88.563,31.84.563Zm-19.2,44.86c-.169.13-.13.429.091.676.208.208.507.3.676.13.169-.13.13-.429-.091-.676C13.111,45.344,12.811,45.253,12.642,45.422Zm-1.4-1.054c-.091.169.039.377.3.507a.387.387,0,0,0,.559-.091c.091-.169-.039-.377-.3-.507C11.537,44.2,11.329,44.238,11.238,44.369ZM15.452,49c-.208.169-.13.559.169.806.3.3.676.338.845.13.169-.169.091-.559-.169-.806C16.011,48.83,15.621,48.791,15.452,49Zm-1.483-1.912c-.208.13-.208.468,0,.767s.559.429.728.3a.593.593,0,0,0,0-.806C14.515,47.048,14.177,46.918,13.969,47.087Z" transform="translate(0 -0.563)" fill="#fff"/>
</svg>
