<svg xmlns="http://www.w3.org/2000/svg" width="60.808" height="42.755" viewBox="0 0 60.808 42.755">
  <path id="Icon_awesome-youtube" data-name="Icon awesome-youtube" d="M60.587,11.19a7.641,7.641,0,0,0-5.376-5.411C50.469,4.5,31.454,4.5,31.454,4.5S12.439,4.5,7.7,5.779A7.641,7.641,0,0,0,2.321,11.19C1.05,15.963,1.05,25.921,1.05,25.921s0,9.958,1.271,14.731A7.527,7.527,0,0,0,7.7,45.976c4.742,1.279,23.757,1.279,23.757,1.279s19.015,0,23.757-1.279a7.527,7.527,0,0,0,5.376-5.324c1.271-4.773,1.271-14.731,1.271-14.731s0-9.958-1.271-14.731ZM25.235,34.962V16.88l15.893,9.042L25.235,34.962Z" transform="translate(-1.05 -4.5)" fill="#fff"/>
</svg>
