<svg xmlns="http://www.w3.org/2000/svg" color=" white" width="59.333" height="59.319" viewBox="0 0 59.333 59.319">
  <path id="Icon_awesome-instagram" data-name="Icon awesome-instagram" d="M29.668,16.689A15.209,15.209,0,1,0,44.876,31.9,15.185,15.185,0,0,0,29.668,16.689Zm0,25.1A9.888,9.888,0,1,1,39.555,31.9a9.906,9.906,0,0,1-9.888,9.888ZM49.046,16.067A3.547,3.547,0,1,1,45.5,12.519,3.539,3.539,0,0,1,49.046,16.067Zm10.073,3.6c-.225-4.752-1.31-8.961-4.792-12.429S46.65,2.684,41.9,2.446c-4.9-.278-19.577-.278-24.474,0-4.739.225-8.948,1.31-12.429,4.778S.441,14.9.2,19.654c-.278,4.9-.278,19.577,0,24.474.225,4.752,1.31,8.961,4.792,12.429s7.677,4.553,12.429,4.792c4.9.278,19.577.278,24.474,0,4.752-.225,8.961-1.31,12.429-4.792s4.553-7.677,4.792-12.429c.278-4.9.278-19.564,0-24.461ZM52.792,49.383a10.01,10.01,0,0,1-5.639,5.639c-3.9,1.549-13.17,1.191-17.485,1.191s-13.594.344-17.485-1.191a10.01,10.01,0,0,1-5.639-5.639c-1.549-3.9-1.191-13.17-1.191-17.485S5.008,18.3,6.543,14.412a10.01,10.01,0,0,1,5.639-5.639c3.9-1.549,13.17-1.191,17.485-1.191s13.594-.344,17.485,1.191a10.01,10.01,0,0,1,5.639,5.639c1.549,3.9,1.191,13.17,1.191,17.485S54.341,45.491,52.792,49.383Z" transform="translate(0.005 -2.238)"/>
</svg>
